<svg xmlns="http://www.w3.org/2000/svg">
  <symbol id="icon-buy" viewBox="0 0 24 24"><g fill="none" stroke="currentColor" stroke-width="1.8" stroke-linecap="square" stroke-linejoin="miter"><circle cx="10" cy="10" r="5.5"/><path d="m14 14 6 6M10 7v6M7 10h6"/></g></symbol>
  <symbol id="icon-deliver" viewBox="0 0 24 24"><g fill="none" stroke="currentColor" stroke-width="1.8" stroke-linecap="square" stroke-linejoin="miter"><path d="M3 6h11v10H3zM14 10h4l3 3v3h-7z"/><circle cx="7" cy="18" r="2"/><circle cx="18" cy="18" r="2"/></g></symbol>
  <symbol id="icon-install" viewBox="0 0 24 24"><g fill="none" stroke="currentColor" stroke-width="1.8" stroke-linecap="square" stroke-linejoin="miter"><path d="m4 20 8-8M13 5l6 6M16 3l5 5-2 3-6-6zM3 16l5 5"/></g></symbol>
  <symbol id="icon-maintain" viewBox="0 0 24 24"><g fill="none" stroke="currentColor" stroke-width="1.8" stroke-linecap="square" stroke-linejoin="miter"><path d="M6 4h12v16H6zM9 4V2h6v2M9 9h6M9 13h6M9 17h4"/></g></symbol>
  <symbol id="icon-repair" viewBox="0 0 24 24"><g fill="none" stroke="currentColor" stroke-width="1.8" stroke-linecap="square" stroke-linejoin="miter"><path d="M14 4a5 5 0 0 0-6 6L3 15l6 6 5-5a5 5 0 0 0 6-6l-4 4-4-2-2-4z"/></g></symbol>
  <symbol id="icon-move" viewBox="0 0 24 24"><g fill="none" stroke="currentColor" stroke-width="1.8" stroke-linecap="square" stroke-linejoin="miter"><path d="M4 12h16M7 9l-3 3 3 3M17 9l3 3-3 3M12 4v16M9 7l3-3 3 3M9 17l3 3 3-3"/></g></symbol>
  <symbol id="icon-replace" viewBox="0 0 24 24"><g fill="none" stroke="currentColor" stroke-width="1.8" stroke-linecap="square" stroke-linejoin="miter"><path d="M4 8h13l-3-3M20 16H7l3 3"/></g></symbol>
  <symbol id="icon-remove" viewBox="0 0 24 24"><g fill="none" stroke="currentColor" stroke-width="1.8" stroke-linecap="square" stroke-linejoin="miter"><path d="M4 7h16M9 7V4h6v3M7 7l1 13h8l1-13M10 11v5M14 11v5"/></g></symbol>
  <symbol id="icon-phone" viewBox="0 0 24 24"><g fill="none" stroke="currentColor" stroke-width="1.8" stroke-linecap="square" stroke-linejoin="miter"><path d="M7 3 4 5c0 8 7 15 15 15l2-3-5-3-2 2c-3-1-5-3-6-6l2-2z"/></g></symbol>
  <symbol id="icon-home" viewBox="0 0 24 24"><g fill="none" stroke="currentColor" stroke-width="1.8"><path d="m3 11 9-8 9 8v10H6V9M10 21v-6h4v6"/></g></symbol>
  <symbol id="icon-facility" viewBox="0 0 24 24"><g fill="none" stroke="currentColor" stroke-width="1.8"><path d="M4 21V7l8-4v18M12 9h8v12M7 8h2M7 12h2M7 16h2M15 12h2M15 16h2"/></g></symbol>
</svg>
